<svg xmlns="http://www.w3.org/2000/svg" xmlns:xlink="http://www.w3.org/1999/xlink" x="0px" y="0px" width="24px" height="24px" viewBox="0 0 32 32"><g transform="translate(0, 0)"><path d="M31,0H1A1,1,0,0,0,0,1V31a1,1,0,0,0,1,1H31a1,1,0,0,0,1-1V1A1,1,0,0,0,31,0ZM26.585,7.582,24.868,9.227a.5.5,0,0,0-.191.482V21.8a.5.5,0,0,0,.191.482l1.676,1.645v.361h-8.43v-.361L19.85,22.24c.171-.171.171-.221.171-.482V11.986L15.194,24.247h-.652L8.921,11.986V20.2a1.134,1.134,0,0,0,.311.943l2.258,2.739v.361h-6.4v-.361l2.258-2.739a1.093,1.093,0,0,0,.291-.943V10.7a.832.832,0,0,0-.271-.7L5.358,7.582V7.221h6.232l4.817,10.565L20.643,7.221h5.941Z" fill="#14181b"></path>
</g></svg>
