<svg xmlns="http://www.w3.org/2000/svg" viewBox="0 0 1000 1000" width="24px" height="24px"><title>Asset 3</title><path fill="#14181b" d="M925,0H75A75,75,0,0,0,0,75V925a75,75,0,0,0,75,75H925a75,75,0,0,0,75-75V75A75,75,0,0,0,925,0ZM675.48,297.87c-30.13,50.49-74.91,145.76-105.86,209.27-7.33,15.47-8.14,25.25-8.14,40.72-.82,53.74,0,155.53,4.07,193,.81,10.58,4.89,16.28,16.29,17.91,11.4.81,26.87,3.26,45.6,5.7l3.26,10.59c-37.46,0-96.91-3.26-138.43-3.26-62.71,0-96.91,3.26-131.11,3.26l-3.25-10.59c18.72-1.63,32.57-4.07,47.22-5.7,19.55-2.44,27.69-9,30.13-29.31,2.45-30.13,3.26-123,4.08-175.89,0-11.4-.82-19.55-7.33-33.39-16.29-42.34-77.36-162.86-115.63-222.3-21.17-30.94-26.87-37.46-66.78-38.27L248.79,249c20.36,0,79,3.26,118.89,3.26,58.63,0,99.34-3.26,124.58-3.26l1.63,10.59-33.38,3.26c-14.66,1.62-14.66,8.95-9,22.8,13,31.75,70,148.2,103.41,218.23,46.42-99.35,74.92-165.31,91.21-209.28,8.14-24.43,1.62-28.5-10.59-30.13-13-1.62-30.13-3.25-44.79-4.88L592.42,249c16.29,0,46.42,3.26,79,3.26S721.08,249,748.77,249l2.44,10.59C707.24,262,694.21,266.11,675.48,297.87Z"/></svg>
